<?xml version="1.0" encoding="utf-8"?>
<!-- Generator: Adobe Illustrator 27.2.0, SVG Export Plug-In . SVG Version: 6.00 Build 0)  -->
<svg version="1.1" id="Layer_1" xmlns="http://www.w3.org/2000/svg" xmlns:xlink="http://www.w3.org/1999/xlink" x="0px" y="0px"
	 viewBox="0 0 174.3 100" style="enable-background:new 0 0 174.3 100;" xml:space="preserve">
<style type="text/css">
	.st0{fill:#312F2D;}
	.st1{fill:#E53323;}
	.st2{fill:url(#SVGID_1_);}
	.st3{fill:url(#SVGID_00000159452788166071935130000009073037451402103447_);}
	.st4{fill:#FFCB00;}
	.st5{fill:url(#SVGID_00000154417710940436581170000001771596508656737183_);}
</style>
<g>
	<path class="st0" d="M53.2,49.2v13.2c0,0.9-0.7,1.6-1.6,1.6H1.6C0.7,64,0,63.3,0,62.4V1.6C0,0.7,0.7,0,1.6,0h48.9
		C51.3,0,52,0.7,52,1.6v13.2c0,0.9-0.7,1.6-1.6,1.6H21.2v7.5h25.5c0.9,0,1.6,0.7,1.6,1.6v12.4c0,0.9-0.7,1.6-1.6,1.6H21.2v8.4h30.4
		C52.5,47.7,53.2,48.4,53.2,49.2z"/>
	<path class="st0" d="M174.3,49.2v13.2c0,0.9-0.7,1.6-1.6,1.6h-50.1c-0.9,0-1.6-0.7-1.6-1.6V1.6c0-0.9,0.7-1.6,1.6-1.6h48.9
		c0.9,0,1.6,0.7,1.6,1.6v13.2c0,0.9-0.7,1.6-1.6,1.6h-29.2v7.5h25.5c0.9,0,1.6,0.7,1.6,1.6v12.4c0,0.9-0.7,1.6-1.6,1.6h-25.5v8.4
		h30.4C173.6,47.7,174.3,48.4,174.3,49.2z"/>
	<path class="st1" d="M106.9,47.2c4.6,0,8.4,3.7,8.4,8.4c0,4.6-3.7,8.4-8.4,8.4c-4.6,0-8.4-3.7-8.4-8.4
		C98.5,51,102.3,47.2,106.9,47.2"/>
	<linearGradient id="SVGID_1_" gradientUnits="userSpaceOnUse" x1="68.8981" y1="55.5915" x2="99.4723" y2="55.5915">
		<stop  offset="0" style="stop-color:#BF0D0D"/>
		<stop  offset="9.322089e-02" style="stop-color:#C71512"/>
		<stop  offset="0.3551" style="stop-color:#D8261B"/>
		<stop  offset="0.6423" style="stop-color:#E23021"/>
		<stop  offset="1" style="stop-color:#E53323"/>
	</linearGradient>
	<path class="st2" d="M95.7,55.6c0-3.3,1.5-6.3,3.8-8.4H77.3c-4.6,0-8.4,3.7-8.4,8.4c0,4.6,3.7,8.4,8.4,8.4h22.2
		C97.2,61.9,95.7,58.9,95.7,55.6z"/>
	<g>
		<path class="st0" d="M16.9,76.5c1.6,0.7,2.7,1.7,3.6,3c0.8,1.3,1.2,2.8,1.2,4.6c0,1.8-0.4,3.3-1.2,4.6c-0.8,1.3-2,2.3-3.6,3
			c-1.6,0.7-3.4,1-5.5,1H5.9v7H1.4V75.4h10C13.5,75.4,15.3,75.8,16.9,76.5z M15.6,87.6c1-0.8,1.5-2,1.5-3.6s-0.5-2.7-1.5-3.6
			c-1-0.8-2.5-1.2-4.5-1.2H5.9v9.6h5.3C13.1,88.9,14.6,88.5,15.6,87.6z"/>
		<path class="st0" d="M57.1,98.4c-2-1.1-3.5-2.6-4.7-4.5s-1.7-4-1.7-6.4c0-2.4,0.6-4.5,1.7-6.4s2.7-3.4,4.7-4.5
			c2-1.1,4.2-1.6,6.7-1.6c2.5,0,4.7,0.5,6.7,1.6c2,1.1,3.5,2.6,4.7,4.4c1.1,1.9,1.7,4,1.7,6.4c0,2.4-0.6,4.5-1.7,6.4
			c-1.1,1.9-2.7,3.4-4.7,4.4c-2,1.1-4.2,1.6-6.7,1.6C61.3,100,59,99.5,57.1,98.4z M68.1,95c1.3-0.7,2.3-1.7,3-3
			c0.7-1.3,1.1-2.8,1.1-4.4c0-1.6-0.4-3.1-1.1-4.4c-0.7-1.3-1.8-2.3-3-3c-1.3-0.7-2.7-1.1-4.4-1.1c-1.6,0-3.1,0.4-4.4,1.1
			c-1.3,0.7-2.3,1.7-3,3c-0.7,1.3-1.1,2.8-1.1,4.4c0,1.6,0.4,3.1,1.1,4.4c0.7,1.3,1.8,2.3,3,3c1.3,0.7,2.7,1.1,4.4,1.1
			C65.3,96.1,66.8,95.7,68.1,95z"/>
		<path class="st0" d="M109.5,99.2c-1.7-0.5-3.1-1.2-4.1-2.1l1.6-3.5c1,0.8,2.2,1.4,3.6,1.9c1.4,0.5,2.9,0.7,4.3,0.7
			c1.8,0,3.1-0.3,4-0.9c0.9-0.6,1.3-1.3,1.3-2.3c0-0.7-0.2-1.3-0.7-1.7s-1.1-0.8-1.9-1.1c-0.8-0.3-1.8-0.5-3.1-0.9
			c-1.8-0.4-3.3-0.9-4.5-1.3c-1.1-0.4-2.1-1.1-2.9-2.1c-0.8-0.9-1.2-2.2-1.2-3.8c0-1.3,0.4-2.6,1.1-3.6c0.7-1.1,1.8-2,3.3-2.6
			c1.5-0.6,3.3-1,5.4-1c1.5,0,2.9,0.2,4.4,0.6c1.4,0.4,2.7,0.9,3.7,1.6l-1.4,3.5c-1.1-0.6-2.2-1.1-3.3-1.4c-1.2-0.3-2.3-0.5-3.4-0.5
			c-1.8,0-3.1,0.3-4,0.9c-0.9,0.6-1.3,1.4-1.3,2.4c0,0.7,0.2,1.3,0.7,1.7c0.5,0.4,1.1,0.8,1.9,1c0.8,0.3,1.8,0.5,3.1,0.9
			c1.8,0.4,3.3,0.8,4.4,1.3c1.2,0.4,2.1,1.1,3,2.1c0.8,0.9,1.2,2.2,1.2,3.7c0,1.3-0.4,2.5-1.1,3.6c-0.7,1.1-1.8,1.9-3.3,2.6
			c-1.5,0.6-3.3,1-5.4,1C113,100,111.2,99.7,109.5,99.2z"/>
		<path class="st0" d="M160.4,79.3h-8v-3.8h20.5v3.8h-8v20.4h-4.5V79.3z"/>
	</g>
	
		<linearGradient id="SVGID_00000096021813453087518550000011423175767684575360_" gradientUnits="userSpaceOnUse" x1="62.5415" y1="61.1751" x2="104.34" y2="12.6655">
		<stop  offset="0" style="stop-color:#E95A0C"/>
		<stop  offset="0.25" style="stop-color:#F29100"/>
		<stop  offset="0.75" style="stop-color:#F29100"/>
		<stop  offset="1" style="stop-color:#E95A0C"/>
	</linearGradient>
	<path style="fill:url(#SVGID_00000096021813453087518550000011423175767684575360_);" d="M77.3,63.9c-1.6,0-3.1-0.6-4.2-1.9
		c-2-2.3-1.7-5.9,0.6-7.9l32.1-27.6c3.5-3,3.9-8.3,0.9-11.8c-3-3.5-8.3-3.9-11.8-0.9l-32.5,28c-5.3,4.5-5.9,12.4-1.3,17.7
		c2.5,2.9,6,4.4,9.5,4.4L77.3,63.9z"/>
	<path class="st4" d="M66.2,0c4.6,0,8.4,3.7,8.4,8.4c0,4.6-3.7,8.4-8.4,8.4c-4.6,0-8.4-3.7-8.4-8.4C57.9,3.7,61.6,0,66.2,0"/>
	
		<linearGradient id="SVGID_00000148619426603709529990000011780088079107634601_" gradientUnits="userSpaceOnUse" x1="73.6443" y1="13.2591" x2="115.2326" y2="13.2591">
		<stop  offset="0" style="stop-color:#FFCB00"/>
		<stop  offset="0.3577" style="stop-color:#FEC800"/>
		<stop  offset="0.6449" style="stop-color:#FCBE00"/>
		<stop  offset="0.9068" style="stop-color:#F8AD00"/>
		<stop  offset="1" style="stop-color:#F6A500"/>
	</linearGradient>
	<path style="fill:url(#SVGID_00000148619426603709529990000011780088079107634601_);" d="M112.2,4.4c-2.5-2.9-6-4.4-9.5-4.4h-29
		c2.3,2.1,3.8,5,3.8,8.4c0,3.3-1.5,6.3-3.8,8.4l28.4,0c1.6,0,3.1,0.7,4.2,1.9c2,2.3,1.7,5.9-0.6,7.9l5.2-4.5
		C116.1,17.5,116.7,9.6,112.2,4.4z"/>
</g>
</svg>
